<svg xmlns="http://www.w3.org/2000/svg" width="2674.28" height="3285.84" viewBox="0 0 2674.28 3285.84">
  <defs>
    <style>
      .cls-1 {
        fill: #0087f9;
        fill-rule: evenodd;
      }
    </style>
  </defs>
  <path class="cls-1" d="M1356,45h7q142.98,110.489,286,221-15.495,28.5-31,57-24.99,13.5-50,27c-8.01,4.343-22.89,18.829-33,16q-64.995-48.995-130-98c-13.59-10.026-29.86-31.484-48-35Q966.535,532.97,576,833L379,984c-15.693,11.7-58.122,35.91-66,52q-0.5,439.95-1,880v217c0,17.74,5.375,64.48-4,71q-72.492-1.005-145-2,0.5-621.945,1-1244Zm454,152c13.64,7.8,19.99,35.249,28,49q36.495,67.994,73,136l179,100v4q-89.985,50.495-180,101l-97,183c-12.69-4.882-19.24-32.464-26-44q-36.99-69.493-74-139-90.495-51.5-181-103c0.67-1,1.33-2,2-3l124-70c15.82-9.355,45.63-17.326,56-32Q1762,288.009,1810,197Zm313,326h2q30,56,60,112,56.49,32.5,113,65v3q-55.5,31-111,62-30.495,57.5-61,115h-3q-31.5-58.494-63-117l-109-60v-3l112-63Q2093,580.006,2123,523Zm-792,99c191.87-2.912,303.91,87.537,360,220,32.06,75.7,39.56,187.21,6,269-51.82,126.28-146.43,203.58-299,230-57.81,10.01-120.78-4.95-160-20-117.66-45.15-198.24-129.33-231-259-5.31-21.03-3.89-45.39-7-67-6.982-48.493,6.39-101.965,20-137,39.66-102.093,112.36-174.9,214-215l63-17Zm20,140-23,2-46,12c-65.62,23.42-114.53,79.237-135,148-37.94,127.47,50.97,229.49,134,262,23.9,9.36,60.61,21.31,98,15,105.4-17.79,165.97-71.99,193-168,7.53-26.76,10.34-69.823,2-99-6.3-22.043-13.3-43.931-24-62-32.93-55.611-85.2-93.058-159-108Zm984,32h6l215,167V2126c0,12.84,2.46,71.05-3,75q-209.475,1.005-419,2h-95c-9.38,0-29.49,2.76-35-2q-1.995-33-4-66c-7.41-43.24-13.16-84.43-25-123-46.65-151.93-144-269.69-264-349-54.56-36.06-117.84-62.93-188-83-106.02-30.33-266.19-25.19-361,11-203.644,77.72-341.606,200.13-414,408-15.392,44.2-21.835,92.53-30,144l-3,60H606c-10.037,0-33.061,3.2-39-2-5.765-14.71,4.123-87.34,7-103,17.281-94.04,36.575-170.17,73-242,104.227-205.55,259.921-339.57,495-415,84.27-27.04,220.3-43.95,329-24,270.85,49.7,449.9,182.25,570,382,42.89,71.33,80.34,155.43,97,252h267q0.495-508.455,1-1017-64.995-50.49-130-101c-6.65-5-43.44-27.889-42-36q7.995-14,16-28,8.505-17.5,17-35Q2300.99,814,2335,794ZM521,2321h2q15,27,30,54,28.5,16.5,57,33l-2,3q-27,14.505-54,29-15.5,27.99-31,56c-16.235-12.21-18.313-40.99-32-56q-28-16.005-56-32,27-15,54-30Q505,2349.5,521,2321ZM297,2482c138.94,0.7,229.367,82.05,266,186,20.219,57.38,20.683,145.99-4,200-43.373,94.91-114.623,151.19-234,171-46.9,7.78-93.961-6.75-124-19-100.161-40.86-155.36-110.51-176-232-6.738-39.66.292-88.46,13-120,32.253-80.05,87.817-140.2,170-170q30.5-7.005,61-14Q283,2483,297,2482Zm598,0c154.16-1.57,252.6,105.09,280,232,10.21,47.3,1,105.4,1,158q-0.495,78.495-1,157-57.495-.495-115-1-0.495-18.495-1-37h-1q-19.995,11.505-40,23c-36.647,16.08-95.054,35.05-152,24-135.217-26.24-215.981-102.49-241-239-5.877-32.06-4.049-76.25,4-105,6.75-24.11,16.133-49.92,28-70,35.687-60.39,89.886-107.16,163-130q24-4.995,48-10Q881.5,2483,895,2482Zm1518,0c149.16,0.18,250.57,100.6,278,223,10.54,47.04,2,98.79,2,154q-0.495,84.99-1,170c-15.96.21-110.42,2.01-114-3q-0.495-17.505-1-35-19.5,10.995-39,22c-37.37,16-96.77,37.04-155,25-130.61-27-213.06-98.8-239-230-7.71-38.99-4.78-92.6,6-126a333.2,333.2,0,0,1,42-85c30.97-45.45,83.97-84.13,142-102q25.5-5.505,51-11Q2399,2483,2413,2482Zm-1190,15q63.495,0.495,127,1v220c0,38-4.41,84.39,5,115,15.9,51.73,76.22,106.77,153,86,119.47-32.31,95.01-165.12,95-312,0-23.52-5.06-94.34,2-110,25.83-.2,110.07-5.66,127,2q0.495,181.98,1,364c16.65,35.6,70.63,68.61,126,58,131.31-25.16,106.01-161.48,106-313,0-23.28-5.03-95.78,2-111,25.83-.2,110.07-5.66,127,2v217c0.01,60.68,2.42,122.37-13,167-25.09,72.63-80.48,125.21-152,152-45.61,17.09-121.26,21.98-171,4-42.16-15.24-68.36-38.81-100-63h-2c-61.84,81.64-221.48,96.58-318,37-62.19-38.39-100.79-99.92-116-186q-0.495-77.985-1-156V2542C1221,2528.36,1218.35,2507.08,1223,2497ZM294,2599l-47,9c-47.03,18.43-81.172,52.33-99,100-39.45,105.49,57.17,232.38,166,215,69.885-11.16,115.86-46.65,139-104C499.877,2702.83,402.116,2598.58,294,2599Zm598,0-46,9c-45.2,17.71-80.383,50.82-98,96-41.706,106.95,54.2,237.2,166,219,66.879-10.89,113.65-45.08,136-100C1099.05,2702.48,1002.53,2598.47,892,2599Zm1518,0-46,9c-44.54,17.29-81.05,50.34-98,95-40.97,107.98,52.42,238.28,165,220,68.56-11.13,115.79-46.1,138-103C2615.68,2700.38,2516.81,2598.48,2410,2599ZM25,3054q56.994,0.495,114,1c3.452,108.36,111.189,198.02,227,148,41.362-17.86,76.17-54.78,90-100l8-49q57.5,0.495,115,1c1.559,130.35-84.282,224.41-179,259-54.478,19.9-139.211,24.09-196,2-95.192-37.03-181.958-129.76-182-261C23,3054.67,24,3054.33,25,3054Z" transform="translate(-22 -45)"/>
</svg>
