<svg xmlns="http://www.w3.org/2000/svg" width="267.447" height="328.603" viewBox="0 0 2674.47 3286.03">
  <defs>
    <style>
      .cls-1 {
        fill: #0087f9;
        fill-rule: evenodd;
      }
    </style>
  </defs>
  <path class="cls-1" d="M1372,42c19.04,1.285,63.95,46.189,80,58l212,161q-13.5,27.5-27,55c-6.07,8.527-73.53,46.136-86,48q-87.495-66.993-175-134c-20.81,6.114-66.68,50.416-86,65q-100.485,76.992-201,154L328,1032c-0.333,389.29-1,1168-1,1168s-47.5.7-148,0V956Zm454,152c14.37,9.12,22.91,40.474,31,56q33.99,63.494,68,127,90.495,51.995,181,104c-0.67,1-1.33,2-2,3q-88.995,49.5-178,99-48.99,91.991-98,184h-3q-48-90.991-96-182-90.495-51-181-102v-4q89.985-50.495,180-101Q1776.99,286.01,1826,194Zm312,326c14.18,4.729,49.14,97.142,64,114l112,64-3,4q-54.99,31-110,62-30.495,56.495-61,113l-3-2q-30-56.994-60-114-55.5-31-111-62c0.33-1,.67-2,1-3l112-63Q2108.49,576.506,2138,520Zm-792,99c196.19-2.971,305.79,90.214,363,226,29.29,69.522,34.47,184.23,5,259-50.71,128.64-146.72,206.95-300,234-63.52,11.21-129.04-7.32-171-24-151.99-60.44-289.24-250.05-205-466,37.94-97.251,114.68-173.258,214-209l61-16Zm21,140-23,2-49,13c-65.28,25.766-108.76,76.9-132,145-6.14,17.983-7,38.631-7,62,0,106.86,64.75,173.38,143,203,23.44,8.88,59.72,20.27,96,14,102.41-17.69,160.36-68.7,190-159,8.78-26.75,13.73-73.674,5-106-5.96-22.055-13.33-44.954-24-63-31.27-52.855-78.29-87.268-144-106Zm983,32c19.95,1.627,39.88,27.579,54,38q60,46,120,92c13.37,10.056,39.4,21.98,47,37V2200H2019c3.2-307.4-205.47-522.48-429-606-85.86-32.08-223.31-51.07-335-27-52.84,11.39-101.21,26.45-146,46-159.916,69.79-295.378,218.02-349,394-11.169,36.66-17.993,76.26-25,117q-2.5,37.995-5,76c-49.328-.33-98.672.33-148,0-2.351-124.64,26.346-235.85,68-320,101.351-204.76,231.037-339.27,451-425,165.82-64.63,403.2-58.21,564,6,153.36,61.24,271.28,159.85,360,286,20.68,29.41,43.8,61.94,59,96,16.54,37.06,33.58,74.84,47,115q12,45.495,24,91,132.99-.495,266-1V1031q-85.995-66.493-172-133,17.505-34.5,35-69Q2317,810,2350,791ZM536,2318c12.732,4.18,23.37,44,33,55q28,15.495,56,31v3q-28.5,16.005-57,32-15,27-30,54c-1-.67-2-1.33-3-2-16.422-51.96-43.194-59.98-85-85l1-3C492.1,2390.08,522.917,2358.9,536,2318ZM312,2479c181.776,0.9,342.733,181.74,265,379-39.294,99.71-116.763,158.17-237,178-44.683,7.37-89.571-6.02-119-17-82.061-30.6-144.62-92.23-171-178-5.885-19.13-5.7-36.87-10-59-7.228-37.23.908-85.99,13-116,32.578-80.85,86.627-138.06,168-170l63-15Q298,2480,312,2479Zm599,0c154.99-.93,253.31,105.99,280,235,9.19,44.41,0,93.84,0,143-0.33,56.33-.67,113.67-1,170-17.08.23-107.2,0-114,0-0.33-12-.67-27-1-39h-4c-39.61,45.8-169.586,58.73-243,35-109.6-35.43-227.068-168.68-184-331,25.353-95.55,88.993-161.84,176-196l63-15Q897,2480,911,2479Zm1518,0c148.41-.36,248.63,100.5,277,221,10.21,43.38,3,96.21,3,146v126c0,15.89-2,54-2,54s-76-.67-114-1q-0.495-18.495-1-37h-1Q2572,2999,2553,3010c-37.12,16.38-95.84,36.45-154,25-31.61-6.22-59.99-13.51-86-25-94.99-41.95-186.84-168.68-151-318,5.52-23.01,14.94-48.03,26-67,33.99-58.3,84.07-105.96,152-130q30.495-7.005,61-14Q2415,2480,2429,2479Zm-1190,15c25.83-.2,110.07-5.66,127,2v219c0,35-5.23,80.13,3,110,14.42,52.31,67.65,106.49,143,93,133.76-23.94,107.01-170.95,107-324q0.495-49.995,1-100,62.49,0.495,125,1c1,0.67,2,1.33,3,2v362c12.95,39.7,67.15,57.46,117,60,23.51,1.2,47.24-12.83,61-23,20.13-14.87,37.15-33.02,47-58,10.39-26.37,7-68.89,7-105q0.495-118.995,1-238,48-.495,96-1c9.42,0,27.64-2.56,32,3q0.495,92.49,1,185c0,52.01,6.18,114.44-4,160-28.37,127-156.56,248.59-327,196-29.88-9.22-57.36-24.93-80-42l-26-23-27,24c-22.63,16.57-49.49,31.89-79,41-170.07,52.53-299.71-69.35-327-197-11.11-51.97-4-122.4-4-181q0.495-82.485,1-165C1237.67,2494.67,1238.33,2494.33,1239,2494ZM309,2596c-15.911,6.18-34.512,4.23-49,10-46.316,18.43-79.26,52.89-97,100-39.308,104.39,58.176,231.72,167,214,69.006-11.24,114.885-46.42,138-103C515.858,2699.85,417.4,2595.48,309,2596Zm598,0-46,9c-45.2,17.81-80.424,51.62-98,97-41.592,107.38,56.361,235.81,166,218,66.536-10.81,113.77-44.41,136-99C1114.58,2699.28,1018.35,2595.39,907,2596Zm1518,0-46,9c-44.08,17.27-79.82,49.96-97,94-41.91,107.42,50.87,239.54,165,221,66.27-10.76,113.72-44.82,136-99C2632.71,2700.13,2535.62,2595.39,2425,2596ZM40,3052c23.829-.21,99.334,0,115,0-1.335,113.26,118.217,195.54,231,146,39.34-17.28,73.42-56.14,86-100q4-23.505,8-47c23.829,0,99.334,1,115,1-15.879,139.1-67.843,209.29-173,258-52.827,24.47-139.824,22.25-196,4-99.717-32.4-188.946-130.91-189-262C38,3051.67,39,3052.33,40,3052Zm2084-772" transform="translate(-37 -42)"/>
</svg>
